<?xml version="1.0" encoding="UTF-8"?>
<svg version="1.1" xmlns="http://www.w3.org/2000/svg" width="240" height="103">
<path d="M0 0 C1.13566406 -0.02578125 2.27132812 -0.0515625 3.44140625 -0.078125 C6.4375 0.25 6.4375 0.25 8.31640625 1.57421875 C10.05784923 4.17728161 9.82524138 6.21269253 9.4375 9.25 C6.4375 11.25 6.4375 11.25 3.9375 11.0625 C1.4375 10.25 1.4375 10.25 0.0625 8.6875 C-1.62874107 6.92066834 -1.62874107 6.92066834 -4.9375 6.8125 C-9.09524204 7.31429645 -10.63836416 8.32586416 -13.5625 11.25 C-15.17598753 14.47697507 -15.0022901 17.75137128 -14.5625 21.25 C-11.41051012 28.27034109 -4.30736415 32.45558593 2.4375 35.6875 C12.32864874 37.54209039 18.87502612 35.56546833 27.4375 30.25 C32.11877036 26.87406534 32.11877036 26.87406534 35.4375 22.25 C35.9702848 17.80430385 36.00057588 14.30858266 33.875 10.3125 C30.74243666 7.66186948 28.51365721 6.75058071 24.4375 6.25 C21.76071702 8.00808599 21.76071702 8.00808599 19.4375 10.25 C16.8125 11.1875 16.8125 11.1875 14.4375 11.25 C12.5625 10.1875 12.5625 10.1875 11.4375 8.25 C11.66080713 4.60265021 11.82122835 2.86627165 14.4375 0.25 C21.88643973 -0.56241977 28.79350902 -0.30928088 35.4375 3.25 C38.81122108 6.26039727 41.43140779 9.82319427 42.4375 14.25 C42.79262318 22.13100295 40.56183216 26.42362676 35.4375 32.25 C31.41638946 36.30343587 27.28213867 40.24803992 23.08007812 44.11376953 C17.30881779 49.08788717 17.30881779 49.08788717 13.76367188 55.58642578 C13.69020338 59.82343108 14.76241912 63.0016875 17.4375 66.25 C20.44693932 68.59067502 23.71825809 68.67436289 27.47265625 68.5625 C30.7236665 68.04544072 32.27798537 66.66357518 34.4375 64.25 C36.06088801 60.61670303 37.16730393 57.21179279 36.4375 53.25 C34.05631834 51.02831634 34.05631834 51.02831634 31.4375 49.25 C30.01087781 46.39675563 30.12716132 44.41545451 30.4375 41.25 C32.23743774 38.55009338 33.521273 36.7081135 36.4375 35.25 C40.3461795 34.99508612 43.14692498 35.01710981 46.4375 37.25 C48.8832626 40.91864391 49.15850244 43.98406887 48.4375 48.25 C46.5625 50.75 46.5625 50.75 44.4375 52.25 C43.7775 52.25 43.1175 52.25 42.4375 52.25 C42.48390625 52.806875 42.5303125 53.36375 42.578125 53.9375 C42.86438535 59.98986176 41.89508909 64.23422109 38.4375 69.25 C34.58220134 73.43575284 30.03402327 74.95927152 24.4375 75.25 C18.41840608 74.31195939 14.29639845 72.04438899 10.4375 67.25 C8.59048441 64.18850294 8.36158894 62.24152715 8.48828125 58.7109375 C7.84761608 51.103911 1.90041402 46.75593644 -3.375 41.875 C-4.39854873 40.89668651 -5.42005372 39.91623008 -6.43945312 38.93359375 C-8.31597153 37.13010611 -10.20430604 35.3436524 -12.10473633 33.56494141 C-20.2454107 25.89732699 -20.2454107 25.89732699 -20.8984375 20.4453125 C-21.03190663 9.95463856 -21.03190663 9.95463856 -16.5625 5.25 C-10.94168669 0.91728974 -6.98927368 0.09541671 0 0 Z M38.4375 41.25 C38.1075 41.91 37.7775 42.57 37.4375 43.25 C38.7575 42.92 40.0775 42.59 41.4375 42.25 C40.4475 41.92 39.4575 41.59 38.4375 41.25 Z M4.4375 42.25 C6.0875 44.23 7.7375 46.21 9.4375 48.25 C13.15610179 46.71126823 13.79383541 45.77488612 16.4375 42.25 C12.4775 42.25 8.5175 42.25 4.4375 42.25 Z " fill="#264DB1" transform="translate(30.5625,16.75)"/>
<path d="M0 0 C3.34265205 1.20706879 3.94704566 1.92056849 6 5 C6.67605634 12.09859155 6.67605634 12.09859155 4.125 15.5 C2 17 2 17 0 17 C0.04640625 17.556875 0.0928125 18.11375 0.140625 18.6875 C0.42688535 24.73986176 -0.54241091 28.98422109 -4 34 C-7.84170204 38.17099078 -12.41307012 39.73783015 -18 40 C-22.53513935 39.12015435 -26.16484557 37.55676962 -30 35 C-30 34.34 -30 33.68 -30 33 C-28.68 33 -27.36 33 -26 33 C-25.67 32.34 -25.34 31.68 -25 31 C-24.505 31.33 -24.01 31.66 -23.5 32 C-19.98746829 33.40501269 -16.69767608 33.58809957 -13 33 C-9.5541574 31.05234984 -8.30053742 29.67263137 -6.6875 26.0625 C-5.7349722 22.0438201 -5.7349722 22.0438201 -6 18 C-8.38118166 15.77831634 -8.38118166 15.77831634 -11 14 C-12.42662219 11.14675563 -12.31033868 9.16545451 -12 6 C-8.46811118 0.70216676 -6.29846462 -0.37790788 0 0 Z M-4 6 C-4.33 6.66 -4.66 7.32 -5 8 C-3.68 7.67 -2.36 7.34 -1 7 C-1.99 6.67 -2.98 6.34 -4 6 Z " fill="#2B4DA8" transform="translate(73,52)"/>
<path d="M0 0 C6.93 0 13.86 0 21 0 C21.99 1.98 22.98 3.96 24 6 C25.50559539 4.03617993 26.89131683 2.21736634 28 0 C29.65 0 31.3 0 33 0 C32.5127628 4.01970694 31.00473923 6.65977678 28.921875 10.0859375 C27.36746612 13.31331188 27.24903416 16.45126319 27 20 C25.35 20 23.7 20 22 20 C21.90203125 19.33613281 21.8040625 18.67226562 21.703125 17.98828125 C20.53004991 10.66321354 20.53004991 10.66321354 16 5 C14.02 5 12.04 5 10 5 C10 9.95 10 14.9 10 20 C8.35 20 6.7 20 5 20 C5 15.05 5 10.1 5 5 C3.35 5 1.7 5 0 5 C0 3.35 0 1.7 0 0 Z " fill="#454545" transform="translate(158,61)"/>
<path d="M0 0 C6.16519499 0.11568247 11.57825166 0.3707861 16.3984375 4.671875 C19.69971683 8.37388766 21.87914935 11.73160542 21.87109375 16.7421875 C21.39679679 23.70527048 21.39679679 23.70527048 19.32421875 26.1171875 C18.84597656 26.51164062 18.36773437 26.90609375 17.875 27.3125 C16.31456664 24.08760438 15.74155012 21.34148834 15.5 17.8125 C15.07342479 13.53963829 14.22139326 11.21857836 10.875 8.3125 C7.51754186 6.57916798 7.51754186 6.57916798 3.875 6.3125 C1.19821702 8.07058599 1.19821702 8.07058599 -1.125 10.3125 C-3.75 11.25 -3.75 11.25 -6.125 11.3125 C-8 10.25 -8 10.25 -9.125 8.3125 C-8.69702562 1.32225187 -6.7516234 0.02349753 0 0 Z " fill="#2D4CA2" transform="translate(51.125,16.6875)"/>
<path d="M0 0 C1.65 0 3.3 0 5 0 C6.80078125 1.96875 6.80078125 1.96875 8.3125 4.5 C8.82425781 5.3353125 9.33601563 6.170625 9.86328125 7.03125 C10.23839844 7.6809375 10.61351563 8.330625 11 9 C11.33 6.03 11.66 3.06 12 0 C13.65 0 15.3 0 17 0 C17 6.6 17 13.2 17 20 C15.02 20 13.04 20 11 20 C9.35 17.03 7.7 14.06 6 11 C5.67 13.97 5.34 16.94 5 20 C3.35 20 1.7 20 0 20 C0 13.4 0 6.8 0 0 Z " fill="#4A494A" transform="translate(91,61)"/>
<path d="M0 0 C1.65 0 3.3 0 5 0 C6.80078125 1.96875 6.80078125 1.96875 8.3125 4.5 C8.82425781 5.3353125 9.33601562 6.170625 9.86328125 7.03125 C10.23839844 7.6809375 10.61351562 8.330625 11 9 C11.33 6.03 11.66 3.06 12 0 C13.65 0 15.3 0 17 0 C17 6.6 17 13.2 17 20 C15.02 20 13.04 20 11 20 C9.35 17.03 7.7 14.06 6 11 C5.67 13.97 5.34 16.94 5 20 C3.35 20 1.7 20 0 20 C0 13.4 0 6.8 0 0 Z " fill="#4B4B4B" transform="translate(134,34)"/>
<path d="M0 0 C3 1.8125 3 1.8125 5 4 C5 4.99 5 5.98 5 7 C2.625 7.125 2.625 7.125 0 7 C-0.66 6.34 -1.32 5.68 -2 5 C-4.60280568 5.32041397 -4.60280568 5.32041397 -7 6 C-7 9.3 -7 12.6 -7 16 C-4.02934491 15.65772428 -4.02934491 15.65772428 -1 15 C-0.67 14.34 -0.34 13.68 0 13 C-1.32 13 -2.64 13 -4 13 C-4 11.68 -4 10.36 -4 9 C-1.03 9 1.94 9 5 9 C5 12.63 5 16.26 5 20 C3.08496326 20.22281874 1.16783494 20.42771076 -0.75 20.625 C-2.35101563 20.79902344 -2.35101563 20.79902344 -3.984375 20.9765625 C-7.09402958 21.0007308 -8.47930053 20.75994783 -11 19 C-13.93595064 14.59607404 -14.28128213 11.50869507 -13.3125 6.3125 C-10.78888798 -0.05661604 -6.61566612 -1.20523026 0 0 Z " fill="#464646" transform="translate(151,61)"/>
<path d="M0 0 C2.5 2.375 2.5 2.375 4 5 C4 5.66 4 6.32 4 7 C2.35 7 0.7 7 -1 7 C-1 6.34 -1 5.68 -1 5 C-2.65 5 -4.3 5 -6 5 C-6.33 5.66 -6.66 6.32 -7 7 C-6.37351563 7.12117188 -5.74703125 7.24234375 -5.1015625 7.3671875 C-4.28429687 7.53476563 -3.46703125 7.70234375 -2.625 7.875 C-1.81289062 8.03742188 -1.00078125 8.19984375 -0.1640625 8.3671875 C2 9 2 9 4 11 C4.66932271 17.13545817 4.66932271 17.13545817 2.5 19.9375 C-1.05569908 21.44867211 -4.19346217 21.5772209 -8 21 C-10.5 19.75 -10.5 19.75 -12 18 C-12 16.68 -12 15.36 -12 14 C-11.278125 14.144375 -10.55625 14.28875 -9.8125 14.4375 C-8.4203125 14.7159375 -8.4203125 14.7159375 -7 15 C-5.33333333 15.33333333 -3.66666667 15.66666667 -2 16 C-1.67 15.34 -1.34 14.68 -1 14 C-1.62648437 13.80664062 -2.25296875 13.61328125 -2.8984375 13.4140625 C-3.71570313 13.15367188 -4.53296875 12.89328125 -5.375 12.625 C-6.59316406 12.24214844 -6.59316406 12.24214844 -7.8359375 11.8515625 C-10 11 -10 11 -12 9 C-12.375 6.0625 -12.375 6.0625 -12 3 C-9.00194515 -0.74756856 -4.46437472 -1.00631397 0 0 Z " fill="#4C4C4C" transform="translate(223,61)"/>
<path d="M0 0 C1.65 0 3.3 0 5 0 C5.33 1.65 5.66 3.3 6 5 C6.70125 4.175 7.4025 3.35 8.125 2.5 C11 0 11 0 14.3125 -0.3125 C15.199375 -0.209375 16.08625 -0.10625 17 0 C15.55746343 3.36591866 13.66735273 5.51047079 11 8 C12.37626099 12.01409454 14.34304697 14.72309126 17 18 C17 18.66 17 19.32 17 20 C14.25 20.3125 14.25 20.3125 11 20 C8.625 17.625 8.625 17.625 7 15 C7 14.34 7 13.68 7 13 C6.34 13 5.68 13 5 13 C5 15.31 5 17.62 5 20 C3.35 20 1.7 20 0 20 C0 13.4 0 6.8 0 0 Z " fill="#4A4A4A" transform="translate(162,34)"/>
<path d="M0 0 C1.65 0 3.3 0 5 0 C6.80078125 2.1875 6.80078125 2.1875 8.3125 5 C8.82425781 5.928125 9.33601562 6.85625 9.86328125 7.8125 C10.23839844 8.534375 10.61351562 9.25625 11 10 C11.33 6.7 11.66 3.4 12 0 C13.32 0 14.64 0 16 0 C16 6.6 16 13.2 16 20 C14.35 20 12.7 20 11 20 C9.19921875 17.8125 9.19921875 17.8125 7.6875 15 C7.17574219 14.071875 6.66398437 13.14375 6.13671875 12.1875 C5.76160156 11.465625 5.38648437 10.74375 5 10 C4.67 13.3 4.34 16.6 4 20 C2.68 20 1.36 20 0 20 C0 13.4 0 6.8 0 0 Z " fill="#494949" transform="translate(119,61)"/>
<path d="M0 0 C1.65 0 3.3 0 5 0 C5.33 1.98 5.66 3.96 6 6 C6.37511719 5.566875 6.75023438 5.13375 7.13671875 4.6875 C11.36878216 0.08233276 11.36878216 0.08233276 14.875 -0.375 C15.57625 -0.25125 16.2775 -0.1275 17 0 C15.47291037 3.43595166 13.40072955 6.11912454 11 9 C11.5053125 9.71027344 12.010625 10.42054687 12.53125 11.15234375 C13.1809375 12.07144531 13.830625 12.99054687 14.5 13.9375 C15.1496875 14.85402344 15.799375 15.77054688 16.46875 16.71484375 C18 19 18 19 18 20 C15.3125 20.375 15.3125 20.375 12 20 C9.98572133 18.17755739 8.61429713 16.21389321 7 14 C6.67 14 6.34 14 6 14 C5.67 15.98 5.34 17.96 5 20 C3.35 20 1.7 20 0 20 C0 13.4 0 6.8 0 0 Z " fill="#474747" transform="translate(91,34)"/>
<path d="M0 0 C1.65 0 3.3 0 5 0 C7.87884807 6.59278183 10.50865808 12.95001999 12 20 C10.35 20 8.7 20 7 20 C6.67 19.01 6.34 18.02 6 17 C3.69 17 1.38 17 -1 17 C-1.33 17.99 -1.66 18.98 -2 20 C-3.65 20 -5.3 20 -7 20 C-5.07443364 13.14381674 -2.7527517 6.56747868 0 0 Z M2 7 C1.67 8.65 1.34 10.3 1 12 C1.99 12 2.98 12 4 12 C3.67 10.35 3.34 8.7 3 7 C2.67 7 2.34 7 2 7 Z " fill="#454545" transform="translate(198,61)"/>
<path d="M0 0 C3.34265205 1.20706879 3.94704566 1.92056849 6 5 C6.39958487 8.42017557 6.5635348 11.87293041 5 15 C3.35 15 1.7 15 0 15 C-0.33 12.69 -0.66 10.38 -1 8 C-2.32 8 -3.64 8 -5 8 C-5 10.97 -5 13.94 -5 17 C-9 16 -9 16 -10.75 14.3125 C-12.40602592 11.24885205 -12.4918074 9.44265183 -12 6 C-8.46811118 0.70216676 -6.29846462 -0.37790788 0 0 Z " fill="#2A5BDF" transform="translate(73,52)"/>
<path d="M0 0 C1.65 0 3.3 0 5 0 C5 5.28 5 10.56 5 16 C8.3 16 11.6 16 15 16 C15 17.32 15 18.64 15 20 C10.05 20 5.1 20 0 20 C0 13.4 0 6.8 0 0 Z " fill="#454545" transform="translate(110,34)"/>
<path d="M0 0 C-1.28857013 1.31554021 -2.58095891 2.62734097 -3.875 3.9375 C-4.59429687 4.66839844 -5.31359375 5.39929687 -6.0546875 6.15234375 C-9.82768512 9.73593386 -13.24680405 9.21365138 -18.2421875 9.1484375 C-23.27445287 8.87757902 -26.04491897 7.84896092 -29.8125 4.5 C-32 2 -32 2 -33 0 C-30.28891137 0.4784274 -27.88004858 1.04742265 -25.3125 2.0625 C-17.78131516 4.19396741 -11.77090589 3.47542477 -4.91015625 -0.22265625 C-3 -1 -3 -1 0 0 Z " fill="#2B5DD8" transform="translate(58,50)"/>
<path d="M0 0 C3 1.8125 3 1.8125 5 4 C5 4.99 5 5.98 5 7 C2.625 7.125 2.625 7.125 0 7 C-0.66 6.34 -1.32 5.68 -2 5 C-4.60280568 5.32041397 -4.60280568 5.32041397 -7 6 C-7.33 7.65 -7.66 9.3 -8 11 C-8.99 11.33 -9.98 11.66 -11 12 C-13 9 -13 9 -12.875 6 C-12 3 -12 3 -10.4375 1.125 C-6.95474585 -0.48242499 -3.72368734 -0.67837472 0 0 Z " fill="#4D4D4D" transform="translate(151,61)"/>
<path d="M0 0 C1.65 0 3.3 0 5 0 C5 6.6 5 13.2 5 20 C3.35 20 1.7 20 0 20 C0 13.4 0 6.8 0 0 Z " fill="#454545" transform="translate(111,61)"/>
<path d="M0 0 C1.65 0 3.3 0 5 0 C5 6.6 5 13.2 5 20 C3.35 20 1.7 20 0 20 C0 13.4 0 6.8 0 0 Z " fill="#4D4D4D" transform="translate(154,34)"/>
<path d="M0 0 C1.65 0 3.3 0 5 0 C5 6.6 5 13.2 5 20 C3.35 20 1.7 20 0 20 C0 13.4 0 6.8 0 0 Z " fill="#4B4B4B" transform="translate(126,34)"/>
<path d="M0 0 C3.0625 0.3125 3.0625 0.3125 4.9375 1.4375 C6.58399743 4.18166239 6.46214378 6.1819571 6.0625 9.3125 C3.0625 11.3125 3.0625 11.3125 0.5625 11.125 C-2.16895737 10.23727635 -3.32870004 9.68336309 -4.9375 7.3125 C-5.25 4.75 -5.25 4.75 -4.9375 2.3125 C-2.9375 0.3125 -2.9375 0.3125 0 0 Z " fill="#255AF3" transform="translate(33.9375,16.6875)"/>
<path d="M0 0 C1.670625 0.061875 1.670625 0.061875 3.375 0.125 C4.7114486 6.56425234 4.7114486 6.56425234 3.25 9 C0.87624254 10.42425448 -0.85239911 10.98636996 -3.625 11.125 C-5.5 10.0625 -5.5 10.0625 -6.625 8.125 C-6.29727128 2.77209762 -5.78764478 0.19957396 0 0 Z " fill="#305ED1" transform="translate(48.625,16.875)"/>
<path d="M0 0 C1.65 0.33 3.3 0.66 5 1 C3.68 1.33 2.36 1.66 1 2 C1 6.95 1 11.9 1 17 C-0.65 17 -2.3 17 -4 17 C-4 12.05 -4 7.1 -4 2 C-2.68 2 -1.36 2 0 2 C0 1.34 0 0.68 0 0 Z " fill="#3E3E3E" transform="translate(167,64)"/>
<path d="M0 0 C-0.309375 0.515625 -0.61875 1.03125 -0.9375 1.5625 C-2.17216209 4.06897041 -2.17216209 4.06897041 -2.375 7.3125 C-3.12344486 11.72832469 -4.62292387 14.24268612 -7 18 C-8.32 17.67 -9.64 17.34 -11 17 C-10.23970843 14.7251355 -9.4673838 12.45564343 -8.6875 10.1875 C-8.47416016 9.54490234 -8.26082031 8.90230469 -8.04101562 8.24023438 C-5.18041613 0 -5.18041613 0 0 0 Z " fill="#4A4A4A" transform="translate(202,62)"/>
<path d="M0 0 C4.40824473 2.90299043 8.71640781 5.91581363 13 9 C11.68 9.33 10.36 9.66 9 10 C9.33 10.99 9.66 11.98 10 13 C6.55986207 13 6.25782921 12.68939486 3.9375 10.375 C1.1855582 7.50697133 -0.06958402 4.90774712 -1 1 C-0.67 0.67 -0.34 0.34 0 0 Z " fill="#284EB6" transform="translate(14,40)"/>
<path d="M0 0 C2 1.1875 2 1.1875 4 3 C4.1875 5.625 4.1875 5.625 4 8 C4.33 8.33 4.66 8.66 5 9 C5.2101919 10.76619587 5.36843437 12.53871338 5.5 14.3125 C5.75008716 17.65741574 6.07938837 20.77018752 7 24 C3.0398851 20.21206401 3.0398851 20.21206401 2.9296875 16.86328125 C2.90261719 15.60064453 2.90261719 15.60064453 2.875 14.3125 C2.43170679 8.95409616 0.46092204 6.64193192 -3.50390625 3.1796875 C-3.99761719 2.79039063 -4.49132812 2.40109375 -5 2 C-4.01 1.67 -3.02 1.34 -2 1 C-1.34 0.67 -0.68 0.34 0 0 Z " fill="#2751B4" transform="translate(36,61)"/>
<path d="M0 0 C1 1 1 1 1.0625 3.5625 C1.041875 4.366875 1.02125 5.17125 1 6 C0.01 5.67 -0.98 5.34 -2 5 C-2.33 4.34 -2.66 3.68 -3 3 C-5.31 3 -7.62 3 -10 3 C-10 5.31 -10 7.62 -10 10 C-10.99 10 -11.98 10 -13 10 C-13.1953125 3.9453125 -13.1953125 3.9453125 -13 2 C-9.35699223 -1.64300777 -4.7414493 -1.3546998 0 0 Z " fill="#215CF3" transform="translate(76,55)"/>
<path d="M0 0 C1.32 0 2.64 0 4 0 C4.33 2.31 4.66 4.62 5 7 C6.32 7.33 7.64 7.66 9 8 C8.21625 8.433125 7.4325 8.86625 6.625 9.3125 C3.78301625 10.89220247 3.78301625 10.89220247 2 14 C1.87625 13.360625 1.7525 12.72125 1.625 12.0625 C1.41875 11.381875 1.2125 10.70125 1 10 C0.34 9.67 -0.32 9.34 -1 9 C-0.67 6.03 -0.34 3.06 0 0 Z " fill="#1846BA" transform="translate(68,60)"/>
<path d="M0 0 C0.99 0 1.98 0 3 0 C3.33 4.95 3.66 9.9 4 15 C5.65 15 7.3 15 9 15 C9 15.66 9 16.32 9 17 C6.03 17 3.06 17 0 17 C0 11.33333333 0 5.66666667 0 0 Z " fill="#525252" transform="translate(111,36)"/>
<path d="M0 0 C2.375 1 2.375 1 4 2 C3.67 2.66 3.34 3.32 3 4 C1.9790625 3.690625 1.9790625 3.690625 0.9375 3.375 C-2.78833331 2.89936171 -5.46992554 3.82330851 -9 5 C-9.33 7.64 -9.66 10.28 -10 13 C-9.34 13 -8.68 13 -8 13 C-6.375 15 -6.375 15 -5 17 C-7.62434747 16.63802104 -8.82013689 16.17343943 -10.75 14.3125 C-12.40602592 11.24885205 -12.4918074 9.44265183 -12 6 C-8.46811118 0.70216676 -6.29846462 -0.37790788 0 0 Z " fill="#335CC8" transform="translate(73,52)"/>
<path d="M0 0 C0.99 0.33 1.98 0.66 3 1 C-1.69766975 6.66129431 -6.74723372 11.85228904 -12 17 C-12.33 16.01 -12.66 15.02 -13 14 C-11.37660195 12.29115995 -9.70680947 10.62553283 -8 9 C-7.34 9 -6.68 9 -6 9 C-6 8.01 -6 7.02 -6 6 C-5.34 6 -4.68 6 -4 6 C-3.566875 5.071875 -3.566875 5.071875 -3.125 4.125 C-2 2 -2 2 0 0 Z " fill="#2A4BA9" transform="translate(65,45)"/>
<path d="M0 0 C0.66 0 1.32 0 2 0 C3.13480527 3.60993172 3.10015767 6.9842327 3.0625 10.75 C3.05347656 11.92046875 3.04445313 13.0909375 3.03515625 14.296875 C3.02355469 15.18890625 3.01195313 16.0809375 3 17 C2.01 17 1.02 17 0 17 C-0.19436491 14.54203147 -0.3807742 12.08390706 -0.5625 9.625 C-0.61857422 8.92632812 -0.67464844 8.22765625 -0.73242188 7.5078125 C-1.11328125 2.2265625 -1.11328125 2.2265625 0 0 Z " fill="#505050" transform="translate(112,63)"/>
<path d="M0 0 C1.98 0 3.96 0 6 0 C5.67 2.31 5.34 4.62 5 7 C3.35 7 1.7 7 0 7 C-0.93423645 3.98968256 -1.04449911 3.13349732 0 0 Z " fill="#215BF3" transform="translate(45,19)"/>
<path d="M0 0 C3.55780196 0.60990891 6.6828589 1.5783681 10 3 C10 3.33 10 3.66 10 4 C8.35 4 6.7 4 5 4 C5 4.66 5 5.32 5 6 C7.31 6 9.62 6 12 6 C12 6.33 12 6.66 12 7 C4.72727273 7.36363636 4.72727273 7.36363636 1.5 5.75 C0 4 0 4 0 0 Z " fill="#424242" transform="translate(211,75)"/>
<path d="M0 0 C0.99 0.33 1.98 0.66 3 1 C2.01 1.495 2.01 1.495 1 2 C1 2.99 1 3.98 1 5 C-0.96875 6.82421875 -0.96875 6.82421875 -3.5 8.6875 C-4.75296875 9.62142578 -4.75296875 9.62142578 -6.03125 10.57421875 C-6.6809375 11.04472656 -7.330625 11.51523437 -8 12 C-8.33 11.34 -8.66 10.68 -9 10 C-7.8758824 8.70756532 -6.75067408 7.41607925 -5.625 6.125 C-4.99851562 5.40570313 -4.37203125 4.68640625 -3.7265625 3.9453125 C-2.52573166 2.5923402 -1.2791655 1.2791655 0 0 Z " fill="#1745BB" transform="translate(58,49)"/>
<path d="M0 0 C1.65 0 3.3 0 5 0 C4.5206753 4.31392226 3.2542015 6.16569547 0 9 C-0.66 8.67 -1.32 8.34 -2 8 C-1.34 5.36 -0.68 2.72 0 0 Z " fill="#4C4C4C" transform="translate(186,61)"/>
<path d="M0 0 C1.41750563 0.11509661 2.83401169 0.24253658 4.25 0.375 C5.03890625 0.44460937 5.8278125 0.51421875 6.640625 0.5859375 C9.085877 1.01507113 10.84836903 1.78600638 13 3 C13 3.66 13 4.32 13 5 C9.04 5 5.08 5 1 5 C0.67 3.35 0.34 1.7 0 0 Z " fill="#214CB7" transform="translate(52,18)"/>
<path d="M0 0 C1.98 0.99 1.98 0.99 4 2 C4 3.65 4 5.3 4 7 C6.475 7.99 6.475 7.99 9 9 C8.67 9.99 8.34 10.98 8 12 C5.9375 12.6875 5.9375 12.6875 4 13 C3.32694982 11.39850114 2.66177773 9.79368971 2 8.1875 C1.62875 7.29417969 1.2575 6.40085937 0.875 5.48046875 C0 3 0 3 0 0 Z " fill="#535353" transform="translate(141,41)"/>
<path d="M0 0 C3.96 0 7.92 0 12 0 C12.33 0.66 12.66 1.32 13 2 C10.23547967 3.38226016 7.9538637 3.09525387 4.875 3.0625 C3.77929688 3.05347656 2.68359375 3.04445312 1.5546875 3.03515625 C0.29011719 3.01775391 0.29011719 3.01775391 -1 3 C-0.67 2.01 -0.34 1.02 0 0 Z " fill="#235BEF" transform="translate(33,55)"/>
<path d="M0 0 C0.91007812 0.10183594 1.82015625 0.20367187 2.7578125 0.30859375 C3.45648438 0.39238281 4.15515625 0.47617188 4.875 0.5625 C4.875 1.8825 4.875 3.2025 4.875 4.5625 C3.43708484 4.42081863 1.9996763 4.27398957 0.5625 4.125 C-0.23800781 4.04378906 -1.03851563 3.96257812 -1.86328125 3.87890625 C-4.125 3.5625 -4.125 3.5625 -7.125 2.5625 C-7.125 1.9025 -7.125 1.2425 -7.125 0.5625 C-4.50184968 -0.74907516 -2.89466564 -0.33399988 0 0 Z " fill="#254CB7" transform="translate(55.125,86.4375)"/>
<path d="M0 0 C5.4 -0.36 5.4 -0.36 7.875 1.125 C9.4682099 3.78034983 9.20214032 5.96789518 9 9 C8.01 9.33 7.02 9.66 6 10 C5.67 7.69 5.34 5.38 5 3 C2.03 2.505 2.03 2.505 -1 2 C-0.67 1.34 -0.34 0.68 0 0 Z " fill="#2C5BD2" transform="translate(31,17)"/>
<path d="M0 0 C0.99 0.33 1.98 0.66 3 1 C2.4946875 1.38929687 1.989375 1.77859375 1.46875 2.1796875 C-2.66737416 5.71155835 -2.66737416 5.71155835 -4.46484375 10.69140625 C-4.44025032 13.16128891 -4.31050597 15.55045287 -4 18 C-4.66 17.67 -5.32 17.34 -6 17 C-6.05437607 15.41705218 -6.09296271 13.83355744 -6.125 12.25 C-6.14820313 11.36828125 -6.17140625 10.4865625 -6.1953125 9.578125 C-5.90944532 5.8046782 -4.80573849 3.75375536 -2.0625 1.1875 C-1.381875 0.795625 -0.70125 0.40375 0 0 Z " fill="#2F4EA7" transform="translate(49,62)"/>
<path d="M0 0 C2.475 0.99 2.475 0.99 5 2 C4.67 5.3 4.34 8.6 4 12 C3.34 12 2.68 12 2 12 C1.34 8.04 0.68 4.08 0 0 Z " fill="#244DB8" transform="translate(67,26)"/>
<path d="M0 0 C0.66 0 1.32 0 2 0 C2.33 4.29 2.66 8.58 3 13 C1.68 12.67 0.36 12.34 -1 12 C-0.67 8.04 -0.34 4.08 0 0 Z " fill="#4A4A4A" transform="translate(165,67)"/>
<path d="M0 0 C0.33 0.66 0.66 1.32 1 2 C1.66 2.33 2.32 2.66 3 3 C2.01 3.495 2.01 3.495 1 4 C0.67 4.99 0.34 5.98 0 7 C-0.33 7.66 -0.66 8.32 -1 9 C-1.99 9 -2.98 9 -4 9 C-4 9.66 -4 10.32 -4 11 C-4.99 10.67 -5.98 10.34 -7 10 C-6.34 10 -5.68 10 -5 10 C-3.58622659 7.36095629 -2.62759865 4.92879371 -2 2 C-1.34 2 -0.68 2 0 2 C0 1.34 0 0.68 0 0 Z " fill="#214DB7" transform="translate(68,77)"/>
<path d="M0 0 C1.32 0 2.64 0 4 0 C4.33 2.31 4.66 4.62 5 7 C6.32 7.33 7.64 7.66 9 8 C7.35 8.66 5.7 9.32 4 10 C3.566875 8.2984375 3.566875 8.2984375 3.125 6.5625 C2.75375 5.386875 2.3825 4.21125 2 3 C1.34 2.67 0.68 2.34 0 2 C0 1.34 0 0.68 0 0 Z " fill="#2351C7" transform="translate(68,60)"/>
<path d="M0 0 C0.66 0.33 1.32 0.66 2 1 C1.67 1.33 1.34 1.66 1 2 C0.96854193 4.29643908 1.0680779 6.57650129 1.16015625 8.87109375 C1 11 1 11 -1 13 C-2.17673198 10.64653604 -2.16623866 9.1193967 -2.1875 6.5 C-2.20167969 5.7059375 -2.21585938 4.911875 -2.23046875 4.09375 C-2 2 -2 2 0 0 Z " fill="#244DBB" transform="translate(13,28)"/>
<path d="M0 0 C3.94727588 -0.17942163 6.5980513 -0.09350689 10 2 C9.67 2.66 9.34 3.32 9 4 C7.9171875 3.7525 7.9171875 3.7525 6.8125 3.5 C4.13572455 3.02412881 1.71050513 2.922557 -1 3 C-0.67 2.01 -0.34 1.02 0 0 Z " fill="#2E5FD7" transform="translate(67,52)"/>
<path d="M0 0 C3.3 0 6.6 0 10 0 C10 1.32 10 2.64 10 4 C8.35 3.67 6.7 3.34 5 3 C5 2.34 5 1.68 5 1 C4.01 1.33 3.02 1.66 2 2 C1.34 1.34 0.68 0.68 0 0 Z " fill="#4B4B4B" transform="translate(115,50)"/>
<path d="M0 0 C1.65 0.33 3.3 0.66 5 1 C4.01 2.485 4.01 2.485 3 4 C2.34 4 1.68 4 1 4 C1.33 6.31 1.66 8.62 2 11 C1.01 10.67 0.02 10.34 -1 10 C-0.67 6.7 -0.34 3.4 0 0 Z " fill="#545454" transform="translate(136,35)"/>
<path d="M0 0 C1.69433918 3.0469629 2.49467112 5.82821466 3.125 9.25 C3.29257812 10.14203125 3.46015625 11.0340625 3.6328125 11.953125 C3.75398438 12.62859375 3.87515625 13.3040625 4 14 C0.05536417 10.22687008 0.05536417 10.22687008 -0.09765625 6.8359375 C-0.08605469 6.02382812 -0.07445312 5.21171875 -0.0625 4.375 C-0.05347656 3.55773437 -0.04445312 2.74046875 -0.03515625 1.8984375 C-0.02355469 1.27195312 -0.01195312 0.64546875 0 0 Z " fill="#2C4EA1" transform="translate(39,71)"/>
<path d="M0 0 C-0.33 0.99 -0.66 1.98 -1 3 C-3.31 2.34 -5.62 1.68 -8 1 C-8 1.66 -8 2.32 -8 3 C-10 2 -10 2 -11 0 C-7.01803543 -1.05404945 -4.01804691 -0.84098656 0 0 Z " fill="#4E4E4E" transform="translate(175,63)"/>
<path d="M0 0 C1.65 0 3.3 0 5 0 C5 1.65 5 3.3 5 5 C4.01 5.33 3.02 5.66 2 6 C0 3 0 3 0 0 Z " fill="#4E4E4E" transform="translate(119,61)"/>
<path d="M0 0 C0.33 0.66 0.66 1.32 1 2 C1.66 2 2.32 2 3 2 C3 1.34 3 0.68 3 0 C3.66 0 4.32 0 5 0 C5.33 1.65 5.66 3.3 6 5 C4.35 5 2.7 5 1 5 C0.67 3.35 0.34 1.7 0 0 Z " fill="#414141" transform="translate(204,76)"/>
<path d="M0 0 C2.31 0 4.62 0 7 0 C6.01 0.33 5.02 0.66 4 1 C4 2.32 4 3.64 4 5 C2.68 4.67 1.36 4.34 0 4 C0 2.68 0 1.36 0 0 Z " fill="#235AF6" transform="translate(30,19)"/>
<path d="M0 0 C0 1.65 0 3.3 0 5 C-1.65 5 -3.3 5 -5 5 C-5 3.68 -5 2.36 -5 1 C-1.125 0 -1.125 0 0 0 Z " fill="#444444" transform="translate(135,76)"/>
<path d="M0 0 C3.8063457 0.67170806 7.35206816 1.72746564 11 3 C11 3.33 11 3.66 11 4 C9.35 4 7.7 4 6 4 C5.67 4.66 5.34 5.32 5 6 C3.35 4.02 1.7 2.04 0 0 Z " fill="#305BCC" transform="translate(25,50)"/>
<path d="M0 0 C0.94875 0.04125 1.8975 0.0825 2.875 0.125 C1.125 4 1.125 4 -1.125 5.125 C-1.125 4.465 -1.125 3.805 -1.125 3.125 C-2.445 2.795 -3.765 2.465 -5.125 2.125 C-3.125 0.125 -3.125 0.125 0 0 Z " fill="#404040" transform="translate(176.125,33.875)"/>
<path d="M0 0 C2.475 0.99 2.475 0.99 5 2 C5 3.65 5 5.3 5 7 C3.29115995 5.37660195 1.62553283 3.70680947 0 2 C0 1.34 0 0.68 0 0 Z " fill="#4F4F4F" transform="translate(176,63)"/>
<path d="M0 0 C0.268125 0.639375 0.53625 1.27875 0.8125 1.9375 C1.88667752 4.33131686 1.88667752 4.33131686 5 5 C6.6875 7.0625 6.6875 7.0625 8 9 C5.3364031 8.64005447 3.41816548 8.28838998 1.1875 6.75 C-0.39364795 4.41988723 -0.22337696 2.75498245 0 0 Z " fill="#2C5BD1" transform="translate(29,19)"/>
<path d="M0 0 C0.66 0.66 1.32 1.32 2 2 C2.99 1.34 3.98 0.68 5 0 C5 1.32 5 2.64 5 4 C3.35 4.66 1.7 5.32 0 6 C0 4.02 0 2.04 0 0 Z " fill="#444444" transform="translate(166,37)"/>
<path d="M0 0 C1.98 0 3.96 0 6 0 C5.67 1.32 5.34 2.64 5 4 C2.525 3.01 2.525 3.01 0 2 C0 1.34 0 0.68 0 0 Z " fill="#214BB7" transform="translate(23,19)"/>
<path d="M0 0 C4.875 1.75 4.875 1.75 6 4 C5.34 4.66 4.68 5.32 4 6 C1.7522025 3.94766315 0.9977758 2.99332739 0 0 Z " fill="#1242B6" transform="translate(26,54)"/>
</svg>
